<?xml version="1.0" encoding="utf-8"?>
<!-- Generator: Adobe Illustrator 16.0.3, SVG Export Plug-In . SVG Version: 6.00 Build 0)  -->
<!DOCTYPE svg PUBLIC "-//W3C//DTD SVG 1.1//EN" "http://www.w3.org/Graphics/SVG/1.1/DTD/svg11.dtd">
<svg version="1.1" id="Layer_1" xmlns="http://www.w3.org/2000/svg" xmlns:xlink="http://www.w3.org/1999/xlink" x="0px" y="0px"
	 width="841.889px" height="595.281px" viewBox="0 0 841.889 595.281" enable-background="new 0 0 841.889 595.281"
	 xml:space="preserve">
<g>
	<g>
		<path fill="#FCFCFC" stroke="#FFFFFF" stroke-miterlimit="10" d="M396.624,456.628c-6.71,0-12.148,5.439-12.148,12.148v5.439
			c0,6.71,5.438,12.148,12.148,12.148c6.708,0,12.148-5.438,12.148-12.148v-5.439C408.773,462.067,403.334,456.628,396.624,456.628z
			"/>
	</g>
</g>
<g>
	<g>
		<path fill="#FFFFFF" d="M696.434,364.327l-36.499-30.061c1.837-12.092,2.767-24.379,2.767-36.626
			c0-12.248-0.93-24.537-2.769-36.629l36.501-30.062c11.664-9.605,14.644-26.066,7.091-39.135l-49.642-85.979
			c-5.47-9.503-15.672-15.405-26.629-15.405c-3.708,0-7.354,0.666-10.814,1.971l-44.308,16.596
			c-19.237-15.447-40.517-27.752-63.423-36.67l-7.771-46.602C498.466,10.82,485.705,0,470.595,0h-99.3
			c-15.11,0-27.872,10.821-30.341,25.717l-7.771,46.608c-22.908,8.922-44.189,21.225-63.427,36.673L225.5,92.422
			c-3.487-1.323-7.139-1.993-10.857-1.993c-10.945,0-21.149,5.898-26.628,15.395l-49.648,85.99
			c-7.556,13.072-4.574,29.534,7.089,39.14l36.501,30.061c-1.837,12.091-2.768,24.379-2.768,36.627
			c0,12.247,0.931,24.535,2.768,36.627l-36.501,30.062c-11.663,9.606-14.644,26.067-7.091,39.136l49.649,85.993
			c5.482,9.5,15.687,15.401,26.629,15.401c3.727,0,7.386-0.675,10.806-1.979l44.306-16.597
			c19.238,15.448,40.519,27.752,63.424,36.671l7.77,46.594c2.467,14.911,15.229,25.733,30.349,25.733h99.3
			c15.104,0,27.865-10.817,30.341-25.716l7.77-46.61c22.91-8.921,44.19-21.224,63.428-36.672l44.263,16.58
			c3.486,1.322,7.14,1.992,10.854,1.992c10.941,0,21.143-5.899,26.625-15.396l49.648-85.992
			C711.077,390.392,708.096,373.932,696.434,364.327z M470.595,570.983h-61.823v-57.467c0-6.709-5.439-12.148-12.148-12.148
			c-6.71,0-12.148,5.439-12.148,12.148v57.467h-12.699V437.745c15.819,5.632,32.625,8.575,49.838,8.583c0.003,0,0.076,0,0.081,0
			c17.268,0,34.095-2.939,49.91-8.576v133.142h0.001C471.275,570.945,470.939,570.983,470.595,570.983z M421.691,422.031h-0.066
			c-68.555-0.034-124.326-55.838-124.324-124.394c0.001-39.895,18.806-76.519,50.178-99.691v88.628
			c0,4.269,2.239,8.223,5.898,10.417l62.063,37.237c3.847,2.307,8.653,2.307,12.501,0l62.063-37.237
			c3.659-2.196,5.898-6.15,5.898-10.417v-88.628c31.372,23.173,50.179,59.798,50.177,99.694c0,33.168-12.956,64.391-36.478,87.913
			C486.079,409.076,454.858,422.031,421.691,422.031z M682.483,391.315l-49.65,85.996c-1.542,2.67-4.793,3.98-7.87,2.813
			l-50.893-19.063c-4.135-1.548-8.783-0.732-12.143,2.132c-19.678,16.775-41.886,29.752-66.027,38.614v-75.315
			c11.145-6.454,21.524-14.4,30.88-23.758c28.112-28.113,43.595-65.436,43.595-105.094c0.001-56.089-31.077-106.769-81.107-132.257
			c-3.766-1.92-8.258-1.742-11.862,0.466c-3.604,2.209-5.801,6.132-5.801,10.358v103.489l-49.915,29.949l-49.915-29.949V176.208
			c0-4.227-2.197-8.149-5.801-10.358c-3.603-2.208-8.096-2.383-11.862-0.466c-50.029,25.487-81.107,76.165-81.109,132.254
			c-0.001,40.395,15.792,78.078,44.468,106.104c9.137,8.93,19.219,16.545,30.008,22.771v75.847
			c-24.716-8.871-47.431-22.042-67.517-39.163c-2.235-1.904-5.038-2.903-7.883-2.903c-1.433,0-2.876,0.252-4.259,0.771l-50.96,19.09
			c-0.712,0.272-1.459,0.411-2.215,0.411c-2.289,0-4.43-1.246-5.586-3.251l-49.652-86c-1.588-2.745-0.956-6.205,1.497-8.227
			l41.915-34.522c3.402-2.804,5.021-7.228,4.227-11.562c-2.36-12.929-3.56-26.171-3.56-39.363c0-13.191,1.198-26.435,3.562-39.36
			c0.792-4.336-0.824-8.761-4.228-11.562l-41.915-34.521c-2.455-2.023-3.085-5.483-1.496-8.232l49.651-85.997
			c1.538-2.667,4.777-3.986,7.87-2.812l50.892,19.063c4.133,1.546,8.783,0.732,12.143-2.131
			c20.25-17.263,43.169-30.513,68.119-39.387c4.157-1.479,7.188-5.095,7.912-9.447l8.928-53.551
			c0.519-3.133,3.199-5.405,6.374-5.405h99.3c3.174,0,5.855,2.272,6.377,5.413l8.928,53.544c0.726,4.353,3.756,7.971,7.913,9.447
			c24.95,8.873,47.867,22.122,68.116,39.384c3.359,2.864,8.008,3.681,12.143,2.132l50.917-19.073
			c0.733-0.277,1.496-0.417,2.268-0.417c2.29,0,4.424,1.237,5.578,3.243l49.652,85.998c1.587,2.745,0.956,6.205-1.497,8.227
			l-41.916,34.522c-3.402,2.803-5.021,7.226-4.227,11.562c2.36,12.926,3.559,26.17,3.559,39.361s-1.197,26.434-3.561,39.359
			c-0.792,4.335,0.824,8.761,4.227,11.562l41.915,34.521C683.443,385.103,684.073,388.566,682.483,391.315z"/>
	</g>
</g>
</svg>
