<?xml version="1.0" encoding="utf-8"?>
<!-- Generator: Adobe Illustrator 16.0.3, SVG Export Plug-In . SVG Version: 6.00 Build 0)  -->
<!DOCTYPE svg PUBLIC "-//W3C//DTD SVG 1.1//EN" "http://www.w3.org/Graphics/SVG/1.1/DTD/svg11.dtd">
<svg version="1.1" id="Layer_1" xmlns="http://www.w3.org/2000/svg" xmlns:xlink="http://www.w3.org/1999/xlink" x="0px" y="0px"
	 width="512px" height="512px" viewBox="0 0 512 512" enable-background="new 0 0 512 512" xml:space="preserve">
<g>
	<g>
		<path fill="#FFFFFF" d="M496.906,56.77h-7.153V21.147c0-10.462-8.513-18.974-18.975-18.974h-14.502
			c-10.462,0-18.974,8.512-18.974,18.974V446.32c0,0.07,0.001,0.141,0.003,0.21c0,0.015,0.001,0.029,0.002,0.043
			c0.002,0.058,0.004,0.114,0.007,0.17c0.001,0.014,0.002,0.026,0.003,0.039c0.004,0.062,0.008,0.121,0.013,0.182
			c0,0.007,0.001,0.013,0.002,0.02c0.036,0.417,0.107,0.824,0.208,1.219l11.943,50.515c1.571,6.645,7.216,11.109,14.044,11.109
			s12.474-4.465,14.044-11.109l11.943-50.514c0.102-0.395,0.172-0.802,0.208-1.219c0.001-0.007,0.001-0.013,0.002-0.02
			c0.005-0.061,0.01-0.121,0.013-0.182c0.001-0.013,0.002-0.025,0.003-0.039c0.003-0.057,0.005-0.112,0.007-0.17
			c0-0.014,0.002-0.027,0.002-0.043c0.003-0.069,0.004-0.14,0.004-0.21V71.77h7.153c0.052,0,0.095,0.042,0.095,0.093v97.247
			c0,4.142,3.356,7.5,7.5,7.5c4.143,0,7.5-3.358,7.5-7.5V71.863C512,63.541,505.229,56.77,496.906,56.77z M452.303,438.82V86.358
			h22.449V438.82H452.303z M474.752,71.358h-22.449V57.182h22.449V71.358z M456.276,17.174h14.502c2.191,0,3.975,1.782,3.975,3.974
			v21.035h-22.449V21.147C452.303,18.957,454.085,17.174,456.276,17.174z M463.526,492.921l-9.244-39.101h18.489L463.526,492.921z"
			/>
		<path fill="#FFFFFF" d="M272.511,363.806h-135.46c-4.143,0-7.5,3.357-7.5,7.5c0,4.142,3.357,7.5,7.5,7.5h135.46
			c4.143,0,7.5-3.358,7.5-7.5C280.011,367.164,276.653,363.806,272.511,363.806z"/>
		<path fill="#FFFFFF" d="M272.511,406.096h-135.46c-4.143,0-7.5,3.357-7.5,7.5c0,4.142,3.357,7.5,7.5,7.5h135.46
			c4.143,0,7.5-3.358,7.5-7.5C280.011,409.454,276.653,406.096,272.511,406.096z"/>
		<path fill="#FFFFFF" d="M204.781,448.386h-67.729c-4.143,0-7.5,3.357-7.5,7.5c0,4.142,3.357,7.5,7.5,7.5h67.729
			c4.144,0,7.5-3.358,7.5-7.5C212.281,451.744,208.924,448.386,204.781,448.386z"/>
		<path fill="#FFFFFF" d="M97.269,167.357h255.493c4.143,0,7.5-3.358,7.5-7.5c0-4.143-3.357-7.5-7.5-7.5H97.269
			c-4.143,0-7.5,3.357-7.5,7.5C89.769,163.999,93.126,167.357,97.269,167.357z"/>
		<path fill="#FFFFFF" d="M97.269,216.466h255.493c4.143,0,7.5-3.357,7.5-7.5c0-4.142-3.357-7.5-7.5-7.5H97.269
			c-4.143,0-7.5,3.358-7.5,7.5C89.769,213.108,93.126,216.466,97.269,216.466z"/>
		<path fill="#FFFFFF" d="M97.269,265.576h123.778c4.143,0,7.5-3.358,7.5-7.5s-3.357-7.5-7.5-7.5H97.269c-4.143,0-7.5,3.358-7.5,7.5
			S93.126,265.576,97.269,265.576z"/>
		<path fill="#FFFFFF" d="M416.106,111.565c0-0.006,0-0.012-0.001-0.02c-0.075-1.526-0.606-2.934-1.461-4.088
			c0-0.001-0.001-0.001-0.001-0.002c-0.032-0.043-0.064-0.086-0.097-0.128c-0.007-0.008-0.012-0.015-0.018-0.021
			c-0.028-0.037-0.059-0.074-0.088-0.111c-0.009-0.011-0.019-0.023-0.028-0.035c-0.025-0.031-0.052-0.062-0.078-0.093
			c-0.014-0.017-0.027-0.033-0.041-0.05c-0.021-0.023-0.04-0.045-0.061-0.068c-0.021-0.024-0.042-0.048-0.063-0.072
			c-0.013-0.013-0.025-0.025-0.037-0.04c-0.029-0.03-0.059-0.063-0.087-0.094c-0.002-0.002-0.003-0.003-0.006-0.005
			c-0.04-0.042-0.079-0.083-0.12-0.124L311.673,4.371c-0.248-0.248-0.511-0.476-0.788-0.685c-0.012-0.009-0.024-0.02-0.036-0.028
			c-0.026-0.02-0.053-0.039-0.079-0.058c-0.024-0.019-0.05-0.037-0.076-0.056c-0.015-0.011-0.03-0.021-0.046-0.031
			c-0.038-0.026-0.075-0.053-0.112-0.078c-0.006-0.003-0.011-0.006-0.015-0.011c-1.091-0.727-2.384-1.175-3.775-1.243
			c-0.02-0.001-0.038-0.001-0.059-0.002c-0.043-0.002-0.085-0.005-0.128-0.006c-0.063-0.002-0.125-0.002-0.188-0.002H61.392
			c-15.148,0-27.475,12.325-27.475,27.475v253.299c0,4.142,3.356,7.5,7.5,7.5c4.143,0,7.5-3.358,7.5-7.5V29.648
			c0-6.878,5.596-12.475,12.475-12.475h237.478v84.433c0,9.822,7.99,17.813,17.813,17.813h84.433v362.933
			c0,6.878-5.596,12.474-12.44,12.474l-46.977-0.205h-0.033c-4.126,0-7.48,3.336-7.499,7.468c-0.019,4.142,3.324,7.515,7.467,7.532
			l47.009,0.205c15.148,0,27.475-12.325,27.475-27.474V111.919c0-0.063-0.001-0.125-0.002-0.187
			C416.111,111.676,416.108,111.621,416.106,111.565z M313.868,101.606V27.78l76.64,76.64h-73.826
			C315.13,104.419,313.868,103.158,313.868,101.606z"/>
		<path fill="#FFFFFF" d="M300.696,306.355H22.368C10.034,306.355,0,316.389,0,328.723v158.529
			c0,12.334,10.034,22.367,22.368,22.367h278.327c12.334,0,22.369-10.033,22.369-22.367V328.723
			C323.065,316.389,313.03,306.355,300.696,306.355z M308.065,487.253c0,4.063-3.306,7.367-7.369,7.367H22.368
			c-4.063,0-7.368-3.305-7.368-7.367V328.723c0-4.063,3.306-7.368,7.368-7.368h278.327c4.063,0,7.369,3.305,7.369,7.368V487.253z"/>
		<path fill="#FFFFFF" d="M105.388,128.371h53.108c8.611,0,15.617-7.006,15.617-15.619V59.644c0-8.612-7.006-15.619-15.617-15.619
			h-53.108c-8.612,0-15.619,7.006-15.619,15.619v53.107C89.769,121.364,96.775,128.371,105.388,128.371z M104.769,59.644
			c0-0.341,0.277-0.619,0.619-0.619h53.108c0.341,0,0.617,0.277,0.617,0.619v53.107c0,0.342-0.276,0.619-0.617,0.619h-53.108
			c-0.342,0-0.619-0.276-0.619-0.619V59.644z"/>
		<path fill="#FFFFFF" d="M91.03,358.189H49.52c-7.236,0-13.125,5.888-13.125,13.125v41.51c0,7.237,5.889,13.125,13.125,13.125
			h41.51c7.237,0,13.125-5.888,13.125-13.125v-41.51C104.155,364.077,98.268,358.189,91.03,358.189z M89.155,410.95h-37.76v-37.76
			h37.761L89.155,410.95L89.155,410.95z"/>
	</g>
</g>
</svg>
