<?xml version="1.0" encoding="utf-8"?>
<!-- Generator: Adobe Illustrator 16.0.3, SVG Export Plug-In . SVG Version: 6.00 Build 0)  -->
<!DOCTYPE svg PUBLIC "-//W3C//DTD SVG 1.1//EN" "http://www.w3.org/Graphics/SVG/1.1/DTD/svg11.dtd">
<svg version="1.1" id="Capa_1" xmlns="http://www.w3.org/2000/svg" xmlns:xlink="http://www.w3.org/1999/xlink" x="0px" y="0px"
	 width="937.5px" height="937.5px" viewBox="0 0 937.5 937.5" enable-background="new 0 0 937.5 937.5" xml:space="preserve">
<g id="surface1">
	<path fill="#FFFFFF" d="M859.375,0h-656.25C160,0.054,125.055,35,125,78.125v250h31.25v-250c0-25.883,20.992-46.875,46.875-46.875
		h656.25c25.883,0,46.875,20.992,46.875,46.875V562.5c0,25.883-20.992,46.875-46.875,46.875H656.25v31.25h203.125
		c43.125-0.055,78.07-35,78.125-78.125V78.125C937.446,35,902.5,0.054,859.375,0z"/>
	<path fill="#FFFFFF" d="M187.5,62.5h31.25v31.25H187.5V62.5z"/>
	<path fill="#FFFFFF" d="M250,62.5h31.25v31.25H250V62.5z"/>
	<path fill="#FFFFFF" d="M312.5,62.5h31.25v31.25H312.5V62.5z"/>
	<path fill="#FFFFFF" d="M187.5,125H875v31.25H187.5V125z"/>
	<path fill="#FFFFFF" d="M187.5,187.5h156.25v31.25H187.5V187.5z"/>
	<path fill="#FFFFFF" d="M187.5,250h93.75v31.25H187.5V250z"/>
	<path fill="#FFFFFF" d="M453.125,296.875v-31.25c0-8.633-6.992-15.625-15.625-15.625H375c-8.633,0-15.625,6.992-15.625,15.625
		v15.625h62.5v15.625H453.125z"/>
	<path fill="#FFFFFF" d="M578.125,375V218.75c0-8.633-6.992-15.625-15.625-15.625H500c-8.633,0-15.625,6.992-15.625,15.625v109.375
		h31.25v-93.75h31.25V375H578.125z"/>
	<path fill="#FFFFFF" d="M671.875,531.25H656.25v31.25H875v-31.25h-46.875v-312.5c0-8.633-6.992-15.625-15.625-15.625H750
		c-8.633,0-15.625,6.992-15.625,15.625v312.5h-31.25V328.125c0-8.633-6.992-15.625-15.625-15.625H625
		c-8.633,0-15.625,6.992-15.625,15.625V468.75h31.25v-125h31.25V531.25z M765.625,234.375h31.25V531.25h-31.25V234.375z"/>
	<path fill="#FFFFFF" d="M312.5,312.5C139.903,312.5,0,452.402,0,625s139.902,312.5,312.5,312.5S625,797.597,625,625
		C624.805,452.492,485.008,312.695,312.5,312.5z M312.5,906.25C160.125,906.371,35.36,785.133,31.129,632.812
		C26.895,480.5,144.727,352.515,296.875,344.172V625c0,0.332,0.176,0.625,0.191,0.973c0.082,1.375,0.355,2.738,0.809,4.035
		c0.102,0.313,0,0.699,0.219,1.004c0.102,0.191,0.207,0.375,0.336,0.551c0.73,1.617,1.719,3.105,2.945,4.395l0.09,0.102L500,834.609
		C448.547,880.914,381.719,906.445,312.5,906.25z M522.11,812.5L350.235,640.625h243.094
		C589.965,704.383,564.824,765.047,522.11,812.5z M328.125,609.375V344.172c142.961,8.148,257.055,122.242,265.203,265.203H328.125z
		"/>
</g>
</svg>
