<?xml version="1.0" encoding="utf-8"?>
<!-- Generator: Adobe Illustrator 23.0.0, SVG Export Plug-In . SVG Version: 6.00 Build 0)  -->
<svg version="1.1" id="Layer_1" xmlns="http://www.w3.org/2000/svg" xmlns:xlink="http://www.w3.org/1999/xlink" x="0px" y="0px"
	 viewBox="0 0 512 512" style="enable-background:new 0 0 512 512;" xml:space="preserve">
<style type="text/css">
	.st0{fill:#FFFFFF;}
</style>
<g id="XMLID_2603_">
	<g id="XMLID_636_">
		<path id="XMLID_1699_" class="st0" d="M92.5,185.1c51,0,92.5-41.5,92.5-92.5S143.6,0,92.5,0S0,41.5,0,92.5S41.5,185.1,92.5,185.1z
			 M92.5,20c40,0,72.5,32.5,72.5,72.5s-32.5,72.5-72.5,72.5S20,132.5,20,92.5S52.5,20,92.5,20z"/>
		<path id="XMLID_1701_" class="st0" d="M100.5,114.5c2,1.9,4.5,2.9,7.1,2.9c2.6,0,5.1-1,7.1-2.9c3.9-3.9,3.9-10.2,0-14.1l-12-12V44
			c0-5.5-4.5-10-10-10s-10,4.5-10,10v48.5c0,2.7,1.1,5.2,2.9,7.1L100.5,114.5z"/>
		<path id="XMLID_1706_" class="st0" d="M502,332h-61.5c-8.5-12-21.2-20.6-35.7-23.7l-44-9.6c18-12.1,29.8-32.7,29.8-56v-24.4V207
			v-2.5c0-37.2-30.3-67.5-67.5-67.5s-67.5,30.3-67.5,67.5v2.5v11.3v24.4c0,23.3,11.8,43.8,29.8,55.9l-43.9,9.6
			c-1.9,0.4-3.7,0.9-5.5,1.5V227c0-5.5-4.5-10-10-10h-68c-5.5,0-10,4.5-10,10s4.5,10,10,10h58v140h-68v-50c0-16.5-13.5-30-30-30
			s-30,13.5-30,30v50H20V237h58c5.5,0,10-4.5,10-10s-4.5-10-10-10H10c-5.5,0-10,4.5-10,10v160c0,5.5,4.5,10,10,10h78v19h-1
			c-17.1,0-31,13.9-31,31v5H10c-5.5,0-10,4.5-10,10v40c0,5.5,4.5,10,10,10h492c5.5,0,10-4.5,10-10v-40v-40v-40v-40
			C512,336.5,507.5,332,502,332z M441.2,452H384v-20h108v20H441.2z M492,412H384v-20h108V412z M492,372H384v-20h50.9
			c0,0,0.1,0,0.1,0c0,0,0.1,0,0.1,0H492V372z M275.7,204.4c0-26.2,21.3-47.5,47.5-47.5c24.9,0,45.4,19.3,47.3,43.8L347.3,187
			c-4.2-2.5-9.6-1.5-12.7,2.2c-10.1,12.1-25,19-40.7,19h-18.1V207L275.7,204.4L275.7,204.4z M275.7,228.3h18.1
			c18.8,0,36.7-7.2,50.2-19.9l26.7,15.7v18.7c0,26.2-21.3,47.5-47.5,47.5s-47.5-21.3-47.5-47.5L275.7,228.3L275.7,228.3z
			 M338.8,308.3L323,350.6l-15.8-42.4c5.1,1.3,10.5,1.9,16,1.9C328.6,310.2,333.8,309.5,338.8,308.3z M226,397c5.5,0,10-4.5,10-10
			v-55.6c3.1-1.6,6.4-2.8,9.8-3.6l43.7-9.6l24.1,64.5c1.5,3.9,5.2,6.5,9.4,6.5s7.9-2.6,9.4-6.5l24.1-64.5l44,9.6
			c3.9,0.8,7.5,2.3,10.9,4.2H374c-5.5,0-10,4.5-10,10v40v40v30H215.2v-55L226,397L226,397z M195.2,397v55H180v-5
			c0-17.1-13.9-31-31-31h-1v-19H195.2z M108,327c0-5.5,4.5-10,10-10s10,4.5,10,10v89h-20V327z M76,447c0-6.1,4.9-11,11-11h11h40h11
			c6.1,0,11,4.9,11,11v5H76V447z M492,492H20v-20h472V492z"/>
		<path id="XMLID_1768_" class="st0" d="M110.9,219.9c-1.9,1.9-2.9,4.4-2.9,7.1s1.1,5.2,2.9,7.1c1.9,1.9,4.4,2.9,7.1,2.9
			s5.2-1.1,7.1-2.9c1.9-1.9,2.9-4.4,2.9-7.1s-1.1-5.2-2.9-7.1c-1.9-1.9-4.4-2.9-7.1-2.9S112.8,218.1,110.9,219.9z"/>
	</g>
</g>
</svg>
